<?xml version="1.0" encoding="UTF-8" standalone="no"?>
<!DOCTYPE svg PUBLIC "-//W3C//DTD SVG 1.1//EN"
 "http://www.w3.org/Graphics/SVG/1.1/DTD/svg11.dtd">
<!-- Generated by graphviz version 3.0.0 (20220226.1711)
 -->
<!-- Title: dependencies Pages: 1 -->
<svg width="823pt" height="174pt"
 viewBox="0.00 0.00 823.00 173.80" xmlns="http://www.w3.org/2000/svg" xmlns:xlink="http://www.w3.org/1999/xlink">
<g id="graph0" class="graph" transform="scale(1 1) rotate(0) translate(4 169.8)">
<title>dependencies</title>
<polygon fill="white" stroke="transparent" points="-4,4 -4,-169.8 819,-169.8 819,4 -4,4"/>
<text text-anchor="middle" x="407.5" y="-8.2" font-family="sans-serif" font-size="14.00">dependencies</text>
<g id="clust1" class="cluster">
<title>cluster_AppModule</title>
<polygon fill="none" stroke="black" stroke-dasharray="1,5" points="8,-32.8 8,-157.8 807,-157.8 807,-32.8 8,-32.8"/>
</g>
<g id="clust3" class="cluster">
<title>cluster_AppModule_imports</title>
<polygon fill="none" stroke="black" points="296,-40.8 296,-92.8 799,-92.8 799,-40.8 296,-40.8"/>
</g>
<g id="clust6" class="cluster">
<title>cluster_AppModule_providers</title>
<polygon fill="none" stroke="black" points="16,-40.8 16,-92.8 288,-92.8 288,-40.8 16,-40.8"/>
</g>
<!-- ImagenesModule -->
<g id="node1" class="node">
<title>ImagenesModule</title>
<polygon fill="#8dd3c7" stroke="black" points="790.69,-84.8 787.69,-88.8 766.69,-88.8 763.69,-84.8 677.31,-84.8 677.31,-48.8 790.69,-48.8 790.69,-84.8"/>
<text text-anchor="middle" x="734" y="-62.6" font-family="Times,serif" font-size="14.00">ImagenesModule</text>
</g>
<!-- AppModule -->
<g id="node5" class="node">
<title>AppModule</title>
<polygon fill="#8dd3c7" stroke="black" points="459.66,-149.8 456.66,-153.8 435.66,-153.8 432.66,-149.8 376.34,-149.8 376.34,-113.8 459.66,-113.8 459.66,-149.8"/>
<text text-anchor="middle" x="418" y="-127.6" font-family="Times,serif" font-size="14.00">AppModule</text>
</g>
<!-- ImagenesModule&#45;&gt;AppModule -->
<g id="edge1" class="edge">
<title>ImagenesModule&#45;&gt;AppModule</title>
<path fill="none" stroke="black" d="M734,-85.08C734,-106.12 734,-137.8 734,-137.8 734,-137.8 469.96,-137.8 469.96,-137.8"/>
<polygon fill="black" stroke="black" points="469.96,-134.3 459.96,-137.8 469.96,-141.3 469.96,-134.3"/>
</g>
<!-- InmueblesModule -->
<g id="node2" class="node">
<title>InmueblesModule</title>
<polygon fill="#8dd3c7" stroke="black" points="658.87,-84.8 655.87,-88.8 634.87,-88.8 631.87,-84.8 541.13,-84.8 541.13,-48.8 658.87,-48.8 658.87,-84.8"/>
<text text-anchor="middle" x="600" y="-62.6" font-family="Times,serif" font-size="14.00">InmueblesModule</text>
</g>
<!-- InmueblesModule&#45;&gt;AppModule -->
<g id="edge2" class="edge">
<title>InmueblesModule&#45;&gt;AppModule</title>
<path fill="none" stroke="black" d="M600,-84.82C600,-102.17 600,-125.8 600,-125.8 600,-125.8 469.75,-125.8 469.75,-125.8"/>
<polygon fill="black" stroke="black" points="469.75,-122.3 459.75,-125.8 469.75,-129.3 469.75,-122.3"/>
</g>
<!-- MailsModule -->
<g id="node3" class="node">
<title>MailsModule</title>
<polygon fill="#8dd3c7" stroke="black" points="522.94,-84.8 519.94,-88.8 498.94,-88.8 495.94,-84.8 431.06,-84.8 431.06,-48.8 522.94,-48.8 522.94,-84.8"/>
<text text-anchor="middle" x="477" y="-62.6" font-family="Times,serif" font-size="14.00">MailsModule</text>
</g>
<!-- MailsModule&#45;&gt;AppModule -->
<g id="edge3" class="edge">
<title>MailsModule&#45;&gt;AppModule</title>
<path fill="none" stroke="black" d="M445.56,-84.91C445.56,-84.91 445.56,-103.79 445.56,-103.79"/>
<polygon fill="black" stroke="black" points="442.06,-103.79 445.56,-113.79 449.06,-103.79 442.06,-103.79"/>
</g>
<!-- UsuariosModule -->
<g id="node4" class="node">
<title>UsuariosModule</title>
<polygon fill="#8dd3c7" stroke="black" points="413.82,-84.8 410.82,-88.8 389.82,-88.8 386.82,-84.8 304.18,-84.8 304.18,-48.8 413.82,-48.8 413.82,-84.8"/>
<text text-anchor="middle" x="359" y="-62.6" font-family="Times,serif" font-size="14.00">UsuariosModule</text>
</g>
<!-- UsuariosModule&#45;&gt;AppModule -->
<g id="edge4" class="edge">
<title>UsuariosModule&#45;&gt;AppModule</title>
<path fill="none" stroke="black" d="M394.92,-84.91C394.92,-84.91 394.92,-103.79 394.92,-103.79"/>
<polygon fill="black" stroke="black" points="391.42,-103.79 394.92,-113.79 398.42,-103.79 391.42,-103.79"/>
</g>
<!-- AppService -->
<g id="node6" class="node">
<title>AppService</title>
<ellipse fill="#fdb462" stroke="black" cx="223" cy="-66.8" rx="56.75" ry="18"/>
<text text-anchor="middle" x="223" y="-62.6" font-family="Times,serif" font-size="14.00">AppService</text>
</g>
<!-- AppService&#45;&gt;AppModule -->
<g id="edge5" class="edge">
<title>AppService&#45;&gt;AppModule</title>
<path fill="none" stroke="black" d="M223,-84.82C223,-102.17 223,-125.8 223,-125.8 223,-125.8 366.17,-125.8 366.17,-125.8"/>
<polygon fill="black" stroke="black" points="366.17,-129.3 376.17,-125.8 366.17,-122.3 366.17,-129.3"/>
</g>
<!-- MailsService -->
<g id="node7" class="node">
<title>MailsService</title>
<ellipse fill="#fdb462" stroke="black" cx="86" cy="-66.8" rx="61.98" ry="18"/>
<text text-anchor="middle" x="86" y="-62.6" font-family="Times,serif" font-size="14.00">MailsService</text>
</g>
<!-- MailsService&#45;&gt;AppModule -->
<g id="edge6" class="edge">
<title>MailsService&#45;&gt;AppModule</title>
<path fill="none" stroke="black" d="M86,-85.08C86,-106.12 86,-137.8 86,-137.8 86,-137.8 366.29,-137.8 366.29,-137.8"/>
<polygon fill="black" stroke="black" points="366.29,-141.3 376.29,-137.8 366.29,-134.3 366.29,-141.3"/>
</g>
</g>
</svg>
