<?xml version="1.0" encoding="UTF-8" standalone="no"?>
<!DOCTYPE svg PUBLIC "-//W3C//DTD SVG 1.1//EN"
 "http://www.w3.org/Graphics/SVG/1.1/DTD/svg11.dtd">
<!-- Generated by graphviz version 3.0.0 (20220226.1711)
 -->
<!-- Title: dependencies Pages: 1 -->
<svg width="1157pt" height="242pt"
 viewBox="0.00 0.00 1157.00 241.80" xmlns="http://www.w3.org/2000/svg" xmlns:xlink="http://www.w3.org/1999/xlink">
<g id="graph0" class="graph" transform="scale(1 1) rotate(0) translate(4 237.8)">
<title>dependencies</title>
<polygon fill="white" stroke="transparent" points="-4,4 -4,-237.8 1153,-237.8 1153,4 -4,4"/>
<text text-anchor="middle" x="574.5" y="-8.2" font-family="sans-serif" font-size="14.00">dependencies</text>
<g id="clust1" class="cluster">
<title>cluster_AppModule</title>
<polygon fill="none" stroke="black" stroke-dasharray="1,5" points="8,-32.8 8,-225.8 559,-225.8 559,-32.8 8,-32.8"/>
</g>
<g id="clust3" class="cluster">
<title>cluster_AppModule_imports</title>
<polygon fill="none" stroke="black" points="48,-108.8 48,-160.8 551,-160.8 551,-108.8 48,-108.8"/>
</g>
<g id="clust6" class="cluster">
<title>cluster_AppModule_providers</title>
<polygon fill="none" stroke="black" points="16,-40.8 16,-92.8 288,-92.8 288,-40.8 16,-40.8"/>
</g>
<g id="clust7" class="cluster">
<title>cluster_ImagenesModule</title>
<polygon fill="none" stroke="black" stroke-dasharray="1,5" points="567,-32.8 567,-100.8 753,-100.8 753,-32.8 567,-32.8"/>
</g>
<g id="clust12" class="cluster">
<title>cluster_ImagenesModule_providers</title>
<polygon fill="none" stroke="black" points="575,-40.8 575,-92.8 745,-92.8 745,-40.8 575,-40.8"/>
</g>
<g id="clust13" class="cluster">
<title>cluster_InmueblesModule</title>
<polygon fill="none" stroke="black" stroke-dasharray="1,5" points="761,-32.8 761,-100.8 953,-100.8 953,-32.8 761,-32.8"/>
</g>
<g id="clust18" class="cluster">
<title>cluster_InmueblesModule_providers</title>
<polygon fill="none" stroke="black" points="769,-40.8 769,-92.8 945,-92.8 945,-40.8 769,-40.8"/>
</g>
<g id="clust25" class="cluster">
<title>cluster_UsuariosModule</title>
<polygon fill="none" stroke="black" stroke-dasharray="1,5" points="961,-32.8 961,-100.8 1141,-100.8 1141,-32.8 961,-32.8"/>
</g>
<g id="clust30" class="cluster">
<title>cluster_UsuariosModule_providers</title>
<polygon fill="none" stroke="black" points="969,-40.8 969,-92.8 1133,-92.8 1133,-40.8 969,-40.8"/>
</g>
<!-- ImagenesModule -->
<g id="node1" class="node">
<title>ImagenesModule</title>
<polygon fill="#8dd3c7" stroke="black" points="278.69,-152.8 275.69,-156.8 254.69,-156.8 251.69,-152.8 165.31,-152.8 165.31,-116.8 278.69,-116.8 278.69,-152.8"/>
<text text-anchor="middle" x="222" y="-130.6" font-family="Times,serif" font-size="14.00">ImagenesModule</text>
</g>
<!-- AppModule -->
<g id="node5" class="node">
<title>AppModule</title>
<polygon fill="#8dd3c7" stroke="black" points="203.66,-217.8 200.66,-221.8 179.66,-221.8 176.66,-217.8 120.34,-217.8 120.34,-181.8 203.66,-181.8 203.66,-217.8"/>
<text text-anchor="middle" x="162" y="-195.6" font-family="Times,serif" font-size="14.00">AppModule</text>
</g>
<!-- ImagenesModule&#45;&gt;AppModule -->
<g id="edge1" class="edge">
<title>ImagenesModule&#45;&gt;AppModule</title>
<path fill="none" stroke="black" d="M184.62,-152.91C184.62,-152.91 184.62,-171.79 184.62,-171.79"/>
<polygon fill="black" stroke="black" points="181.12,-171.79 184.62,-181.79 188.12,-171.79 181.12,-171.79"/>
</g>
<!-- InmueblesModule -->
<g id="node2" class="node">
<title>InmueblesModule</title>
<polygon fill="#8dd3c7" stroke="black" points="414.87,-152.8 411.87,-156.8 390.87,-156.8 387.87,-152.8 297.13,-152.8 297.13,-116.8 414.87,-116.8 414.87,-152.8"/>
<text text-anchor="middle" x="356" y="-130.6" font-family="Times,serif" font-size="14.00">InmueblesModule</text>
</g>
<!-- InmueblesModule&#45;&gt;AppModule -->
<g id="edge2" class="edge">
<title>InmueblesModule&#45;&gt;AppModule</title>
<path fill="none" stroke="black" d="M356,-152.82C356,-170.17 356,-193.8 356,-193.8 356,-193.8 214.1,-193.8 214.1,-193.8"/>
<polygon fill="black" stroke="black" points="214.1,-190.3 204.1,-193.8 214.1,-197.3 214.1,-190.3"/>
</g>
<!-- MailsModule -->
<g id="node3" class="node">
<title>MailsModule</title>
<polygon fill="#8dd3c7" stroke="black" points="147.94,-152.8 144.94,-156.8 123.94,-156.8 120.94,-152.8 56.06,-152.8 56.06,-116.8 147.94,-116.8 147.94,-152.8"/>
<text text-anchor="middle" x="102" y="-130.6" font-family="Times,serif" font-size="14.00">MailsModule</text>
</g>
<!-- MailsModule&#45;&gt;AppModule -->
<g id="edge3" class="edge">
<title>MailsModule&#45;&gt;AppModule</title>
<path fill="none" stroke="black" d="M133.94,-152.91C133.94,-152.91 133.94,-171.79 133.94,-171.79"/>
<polygon fill="black" stroke="black" points="130.44,-171.79 133.94,-181.79 137.44,-171.79 130.44,-171.79"/>
</g>
<!-- UsuariosModule -->
<g id="node4" class="node">
<title>UsuariosModule</title>
<polygon fill="#8dd3c7" stroke="black" points="542.82,-152.8 539.82,-156.8 518.82,-156.8 515.82,-152.8 433.18,-152.8 433.18,-116.8 542.82,-116.8 542.82,-152.8"/>
<text text-anchor="middle" x="488" y="-130.6" font-family="Times,serif" font-size="14.00">UsuariosModule</text>
</g>
<!-- UsuariosModule&#45;&gt;AppModule -->
<g id="edge4" class="edge">
<title>UsuariosModule&#45;&gt;AppModule</title>
<path fill="none" stroke="black" d="M488,-153.08C488,-174.12 488,-205.8 488,-205.8 488,-205.8 213.95,-205.8 213.95,-205.8"/>
<polygon fill="black" stroke="black" points="213.95,-202.3 203.95,-205.8 213.95,-209.3 213.95,-202.3"/>
</g>
<!-- AppService -->
<g id="node6" class="node">
<title>AppService</title>
<ellipse fill="#fdb462" stroke="black" cx="81" cy="-66.8" rx="56.75" ry="18"/>
<text text-anchor="middle" x="81" y="-62.6" font-family="Times,serif" font-size="14.00">AppService</text>
</g>
<!-- AppService&#45;&gt;AppModule -->
<g id="edge5" class="edge">
<title>AppService&#45;&gt;AppModule</title>
<path fill="none" stroke="black" d="M137.86,-66.8C146.1,-66.8 151.87,-66.8 151.87,-66.8 151.87,-66.8 151.87,-171.59 151.87,-171.59"/>
<polygon fill="black" stroke="black" points="148.37,-171.59 151.87,-181.59 155.37,-171.59 148.37,-171.59"/>
</g>
<!-- MailsService -->
<g id="node7" class="node">
<title>MailsService</title>
<ellipse fill="#fdb462" stroke="black" cx="218" cy="-66.8" rx="61.98" ry="18"/>
<text text-anchor="middle" x="218" y="-62.6" font-family="Times,serif" font-size="14.00">MailsService</text>
</g>
<!-- MailsService&#45;&gt;MailsModule -->
<g id="edge9" class="edge">
<title>MailsService&#45;&gt;MailsModule</title>
<path fill="none" stroke="black" d="M159.14,-72.6C159.14,-89.04 159.14,-134.8 159.14,-134.8 159.14,-134.8 157.85,-134.8 157.85,-134.8"/>
<polygon fill="black" stroke="black" points="157.85,-131.3 147.85,-134.8 157.85,-138.3 157.85,-131.3"/>
</g>
<!-- MailsService&#45;&gt;AppModule -->
<g id="edge6" class="edge">
<title>MailsService&#45;&gt;AppModule</title>
<path fill="none" stroke="black" d="M162.27,-74.72C162.27,-74.72 162.27,-171.52 162.27,-171.52"/>
<polygon fill="black" stroke="black" points="158.77,-171.52 162.27,-181.52 165.77,-171.52 158.77,-171.52"/>
</g>
<!-- ImagenesService -->
<g id="node8" class="node">
<title>ImagenesService</title>
<ellipse fill="#fdb462" stroke="black" cx="660" cy="-66.8" rx="76.99" ry="18"/>
<text text-anchor="middle" x="660" y="-62.6" font-family="Times,serif" font-size="14.00">ImagenesService</text>
</g>
<!-- ImagenesService&#45;&gt;ImagenesModule -->
<g id="edge7" class="edge">
<title>ImagenesService&#45;&gt;ImagenesModule</title>
<path fill="none" stroke="black" d="M582.58,-66.8C473.71,-66.8 288.53,-66.8 288.53,-66.8 288.53,-66.8 288.53,-134.8 288.53,-134.8 288.53,-134.8 287.55,-134.8 287.55,-134.8"/>
<polygon fill="black" stroke="black" points="288.71,-131.3 278.71,-134.8 288.71,-138.3 288.71,-131.3"/>
</g>
<!-- InmueblesService -->
<g id="node9" class="node">
<title>InmueblesService</title>
<ellipse fill="#fdb462" stroke="black" cx="857" cy="-66.8" rx="80.44" ry="18"/>
<text text-anchor="middle" x="857" y="-62.6" font-family="Times,serif" font-size="14.00">InmueblesService</text>
</g>
<!-- InmueblesService&#45;&gt;InmueblesModule -->
<g id="edge8" class="edge">
<title>InmueblesService&#45;&gt;InmueblesModule</title>
<path fill="none" stroke="black" d="M857,-84.99C857,-93.08 857,-100.8 857,-100.8 857,-100.8 356,-100.8 356,-100.8 356,-100.8 356,-106.61 356,-106.61"/>
<polygon fill="black" stroke="black" points="352.5,-106.61 356,-116.61 359.5,-106.61 352.5,-106.61"/>
</g>
<!-- UsuariosService -->
<g id="node10" class="node">
<title>UsuariosService</title>
<ellipse fill="#fdb462" stroke="black" cx="1051" cy="-66.8" rx="74.15" ry="18"/>
<text text-anchor="middle" x="1051" y="-62.6" font-family="Times,serif" font-size="14.00">UsuariosService</text>
</g>
<!-- UsuariosService&#45;&gt;UsuariosModule -->
<g id="edge10" class="edge">
<title>UsuariosService&#45;&gt;UsuariosModule</title>
<path fill="none" stroke="black" d="M1051,-85.02C1051,-105.17 1051,-134.8 1051,-134.8 1051,-134.8 552.75,-134.8 552.75,-134.8"/>
<polygon fill="black" stroke="black" points="552.75,-131.3 542.75,-134.8 552.75,-138.3 552.75,-131.3"/>
</g>
</g>
</svg>
